<svg xmlns="http://www.w3.org/2000/svg" xmlns:xlink="http://www.w3.org/1999/xlink" width="1280" height="894.4"><g transform="translate(0 0)"><path d="M0 0h1280v894.4H0z" fill="#f2f2f2"/><path d="M443.07 463.38c0-2.76 2.24-5 5-5h229.7c2.77 0 5 2.24 5 5v75.4c0 2.75-2.23 5-5 5h-229.7c-2.76 0-5-2.25-5-5z" stroke="#000" stroke-width="4" fill="#cdbbdc"/><use xlink:href="#a" transform="matrix(1,0,0,1,443.071642576875,458.3836861750001) translate(39.67999999999999 50.875)"/><path d="M562.94 458.38l.02-80.6" stroke="#000" stroke-width="2" fill="none"/><path d="M562.94 458.38h-1zM563.96 377.78h-1 1z"/><path d="M492.8 327.75c0-2.76 2.23-5 5-5h130.35c2.76 0 5 2.24 5 5v45.03c0 2.76-2.24 5-5 5H497.8c-2.77 0-5-2.24-5-5z" stroke="#6c6572" stroke-width="2" fill="#d7c9e3"/><use xlink:href="#b" transform="matrix(1,0,0,1,492.78744959374995,322.75135375) translate(7.887000000000009 33.7)"/><use xlink:href="#c" transform="matrix(1,0,0,1,492.78744959374995,322.75135375) translate(76.629 33.7)"/><path d="M682.78 500.88l81.2-.13" stroke="#000" stroke-width="2" fill="none"/><path d="M682.78 501.88v-1zM763.97 500.75v-1z"/><path d="M763.97 478.13c0-2.77 2.24-5 5-5h124c2.76 0 5 2.23 5 5v45.02c0 2.76-2.24 5-5 5h-124c-2.76 0-5-2.24-5-5z" stroke="#6c6572" stroke-width="2" fill="#d7c9e3"/><use xlink:href="#d" transform="matrix(1,0,0,1,763.9674495937501,473.12594199999984) translate(31.833 33.7)"/><path d="M562.8 543.77l-.26 95.32" stroke="#000" stroke-width="2" fill="none"/><path d="M563.8 543.77h-1 1zM562.54 639.1h-1v-.02z"/><path d="M493.97 644.1c0-2.78 2.24-5 5-5h127c2.76 0 5 2.22 5 5v44.16c0 2.77-2.24 5-5 5h-127c-2.76 0-5-2.23-5-5z" stroke="#6c6572" stroke-width="2" fill="#d7c9e3"/><use xlink:href="#e" transform="matrix(1,0,0,1,493.96744959374996,639.0856662499999) translate(14.154000000000005 33.3875)"/><use xlink:href="#f" transform="matrix(1,0,0,1,493.96744959374996,639.0856662499999) translate(59.333999999999996 33.3875)"/><path d="M443.07 500.88l-51.6-.1" stroke="#000" stroke-width="2" fill="none"/><path d="M443.07 501.88v-1zM391.48 499.8v1-1z"/><path d="M243.97 475.4c0-2.76 2.24-5 5-5h137.5c2.77 0 5 2.24 5 5v50.53c0 2.76-2.23 5-5 5h-137.5c-2.76 0-5-2.24-5-5z" stroke="#6c6572" stroke-width="2" fill="#d7c9e3"/><use xlink:href="#g" transform="matrix(1,0,0,1,243.96744959375,470.40166325) translate(46.919000000000004 21.21)"/><use xlink:href="#h" transform="matrix(1,0,0,1,243.96744959375,470.40166325) translate(23.58699999999999 42.378)"/><path d="M510.97 152.75c0-2.76 2.24-5 5-5h130.36c2.76 0 5 2.24 5 5v45.03c0 2.76-2.24 5-5 5H515.97c-2.76 0-5-2.24-5-5z" stroke="#716b75" stroke-width="2" fill="#e1d6ea"/><use xlink:href="#i" transform="matrix(1,0,0,1,510.96744959375,147.75135375000002) translate(46.596 33.7)"/><path d="M290.97 187.75c0-2.76 2.24-5 5-5h130.36c2.76 0 5 2.24 5 5v45.03c0 2.76-2.24 5-5 5H295.97c-2.76 0-5-2.24-5-5z" stroke="#716b75" stroke-width="2" fill="#e1d6ea"/><use xlink:href="#j" transform="matrix(1,0,0,1,290.96744959375,182.75135375000005) translate(6.573000000000002 33.7)"/><use xlink:href="#k" transform="matrix(1,0,0,1,290.96744959375,182.75135375000005) translate(76.935 33.7)"/><path d="M911.95 712.4c0-2.76 2.24-5 5-5h144.4c2.76 0 5 2.24 5 5v50.53c0 2.76-2.24 5-5 5h-144.4c-2.76 0-5-2.24-5-5z" stroke="#716b75" stroke-width="2" fill="#e1d6ea"/><use xlink:href="#l" transform="matrix(1,0,0,1,911.94944959375,707.4016632499998) translate(39.916 35.2625)"/><path d="M991.95 590.4c0-2.76 2.24-5 5-5h144.4c2.76 0 5 2.24 5 5v50.53c0 2.76-2.24 5-5 5h-144.4c-2.76 0-5-2.24-5-5z" stroke="#716b75" stroke-width="2" fill="#e1d6ea"/><use xlink:href="#m" transform="matrix(1,0,0,1,991.94944959375,585.4016632499998) translate(35.812 35.2625)"/><path d="M833.97 328.15c0-2.76 2.24-5 5-5h130.36c2.76 0 5 2.24 5 5v45.03c0 2.76-2.24 5-5 5H838.97c-2.76 0-5-2.24-5-5z" stroke="#716b75" stroke-width="2" fill="#e1d6ea"/><use xlink:href="#n" transform="matrix(1,0,0,1,833.9674495937502,323.153017) translate(42.249 33.7)"/><path d="M1044.23 332.38c0-2.77 2.24-5 5-5h159.84c2.76 0 5 2.23 5 5v56.58c0 2.76-2.24 5-5 5h-159.84c-2.76 0-5-2.24-5-5z" stroke="#716b75" stroke-width="2" fill="#e1d6ea"/><use xlink:href="#o" transform="matrix(1,0,0,1,1044.2296495937499,327.37517412500006) translate(40.157999999999994 39.23125)"/><path d="M1011.95 468.4c0-2.76 2.24-5 5-5h144.4c2.76 0 5 2.24 5 5v50.53c0 2.76-2.24 5-5 5h-144.4c-2.76 0-5-2.24-5-5z" stroke="#716b75" stroke-width="2" fill="#e1d6ea"/><use xlink:href="#p" transform="matrix(1,0,0,1,1011.94944959375,463.40166324999996) translate(42.849999999999994 35.2625)"/><path d="M431.23 762.5c0-2.77 2.24-5 5-5h159.84c2.76 0 5 2.23 5 5v56.57c0 2.76-2.24 5-5 5H436.23c-2.76 0-5-2.24-5-5z" stroke="#716b75" stroke-width="2" fill="#e1d6ea"/><use xlink:href="#q" transform="matrix(1,0,0,1,431.22964959375,757.4870483749997) translate(17.324999999999996 39.23125)"/><use xlink:href="#r" transform="matrix(1,0,0,1,431.22964959375,757.4870483749997) translate(65.72699999999999 39.23125)"/><path d="M90.05 579.7c0-2.75 2.24-5 5-5h159.83c2.77 0 5 2.25 5 5v56.6c0 2.75-2.23 5-5 5H95.05c-2.76 0-5-2.25-5-5z" stroke="#716b75" stroke-width="2" fill="#e1d6ea"/><use xlink:href="#s" transform="matrix(1,0,0,1,90.0487046124998,574.708619625) translate(48.086999999999996 28.7625)"/><use xlink:href="#t" transform="matrix(1,0,0,1,90.0487046124998,574.708619625) translate(93.465 28.7625)"/><use xlink:href="#u" transform="matrix(1,0,0,1,90.0487046124998,574.708619625) translate(39.18599999999999 49.930499999999995)"/><path d="M65.93 367.38c0-2.77 2.24-5 5-5h159.84c2.76 0 5 2.23 5 5v56.58c0 2.76-2.24 5-5 5H70.93c-2.76 0-5-2.24-5-5z" stroke="#716b75" stroke-width="2" fill="#e1d6ea"/><use xlink:href="#v" transform="matrix(1,0,0,1,65.93475040624999,362.37517412499994) translate(39.07799999999999 39.23125)"/><path d="M376.23 71.97c0-2.76 2.24-5 5-5h159.84c2.76 0 5 2.24 5 5v56.6c0 2.75-2.24 5-5 5H381.23c-2.76 0-5-2.25-5-5z" stroke="#716b75" stroke-width="2" fill="#e1d6ea"/><use xlink:href="#w" transform="matrix(1,0,0,1,376.2296495937498,66.973510875) translate(5.372999999999999 39.23125)"/><use xlink:href="#x" transform="matrix(1,0,0,1,376.2296495937498,66.973510875) translate(94.45500000000001 39.23125)"/><path d="M635.97 82.75c0-2.76 2.24-5 5-5h130.36c2.76 0 5 2.24 5 5v45.03c0 2.76-2.24 5-5 5H640.97c-2.76 0-5-2.24-5-5z" stroke="#716b75" stroke-width="2" fill="#e1d6ea"/><use xlink:href="#y" transform="matrix(1,0,0,1,635.9674495937502,77.75135375000002) translate(10.569000000000011 33.7)"/><use xlink:href="#z" transform="matrix(1,0,0,1,635.9674495937502,77.75135375000002) translate(68.115 33.7)"/><path d="M720.97 187.72c0-2.76 2.24-5 5-5h130.36c2.76 0 5 2.24 5 5v45.03c0 2.76-2.24 5-5 5H725.97c-2.76 0-5-2.24-5-5z" stroke="#716b75" stroke-width="2" fill="#e1d6ea"/><use xlink:href="#A" transform="matrix(1,0,0,1,720.9674495937502,182.72427875000002) translate(24.45600000000001 33.7)"/><use xlink:href="#B" transform="matrix(1,0,0,1,720.9674495937502,182.72427875000002) translate(64.506 33.7)"/><path d="M544.3 321.75l-83.15-188.2" stroke="#000" stroke-width="2" fill="none"/><path d="M545.83 322.75h-2.2l-.25-.6 1.83-.8zM460.23 133.96l-.18-.4h1.1z"/><path d="M592.3 321.75l113.85-188.97" stroke="#000" stroke-width="2" fill="none"/><path d="M593.15 322.27l-.3.48h-2.33l.92-1.5zM707 133.3l-.85-.52h1.16z"/><path d="M607.8 322.75l138.5-85" stroke="#000" stroke-width="2" fill="none"/><path d="M607.8 322.75h-1.9l1.38-.85zM746.84 238.6l-.53-.85h1.92z"/><path d="M565.83 322.75l12.46-119.97" stroke="#000" stroke-width="2" fill="none"/><path d="M565.83 322.75h-1v-.1zM579.28 202.88l-1-.1h1z"/><path d="M523.3 322.75l-122.5-84.97" stroke="#000" stroke-width="2" fill="none"/><path d="M525.06 322.75h-1.76l.57-.82zM400.24 238.6l-1.18-.82h1.75z"/><path d="M242.87 477.77l-59.15-47.6" stroke="#000" stroke-width="2" fill="none"/><path d="M243.97 477.37v2.57l-1.73-1.4 1.25-1.55zM184.35 429.4l-1.26 1.55-2.34-1.88.08-.1h2.97z"/><path d="M277.47 530.93l-58.22 43.78" stroke="#000" stroke-width="2" fill="none"/><path d="M278.07 531.73l-.6-.8h1.66zM219.25 574.7h-1.67l1.06-.8z"/><path d="M552.4 693.26l-23.88 64.23" stroke="#000" stroke-width="2" fill="none"/><path d="M553.33 693.6l-.93-.34h1.06zM528.52 757.5h-1.06l.13-.36z"/><path d="M733.97 643.15c0-2.76 2.24-5 5-5h130.36c2.76 0 5 2.24 5 5v45.03c0 2.76-2.24 5-5 5H738.97c-2.76 0-5-2.24-5-5z" stroke="#716b75" stroke-width="2" fill="#e1d6ea"/><use xlink:href="#C" transform="matrix(1,0,0,1,733.9674495937502,638.1530169999999) translate(43.338 33.7)"/><path d="M844.4 473.13l46.32-94.95" stroke="#000" stroke-width="2" fill="none"/><path d="M844.4 473.13h-1.12l.2-.44zM891.62 378.62l-.9-.44h1.1z"/><path d="M889.58 473.13l168.65-79.17" stroke="#000" stroke-width="2" fill="none"/><path d="M889.58 473.13h-2.35l1.92-.9zM1058.65 394.86l-.42-.9h2.35z"/><path d="M897.97 498.83l113.98-3.08" stroke="#000" stroke-width="2" fill="none"/><path d="M898 499.83h-.03v-1zM1011.95 495.75l-.03-1h.03z"/><path d="M887.94 528.15l118.54 57.25" stroke="#000" stroke-width="2" fill="none"/><path d="M887.5 529.05l-1.86-.9h2.3zM1008.78 585.4h-2.3l.43-.9z"/><path d="M849.33 528.15L968.95 707.4" stroke="#000" stroke-width="2" fill="none"/><path d="M848.5 528.7l-.37-.55h1.2zM970.15 707.4h-1.2l.83-.55z"/><path d="M826.5 528.15l-17.88 110" stroke="#000" stroke-width="2" fill="none"/><path d="M827.48 528.3l-.98-.15h1zM808.62 638.15h-1V638z"/><defs><path d="M85-694c171-23 429-43 422 154-3 92-55 144-132 165v4c90 17 153 67 153 172C528-40 396 12 227 8 178 7 125 5 85-5v-689zm83 623c126 19 272 6 272-122 0-133-136-132-272-129v251zm251-452c4-121-140-121-251-107v238c64-1 139 3 178-24 36-24 71-50 73-107" id="D"/><path d="M152-439c26-60 97-88 178-61l-17 77c-74-29-156 5-156 73V0H77v-500h56l15 61h4" id="E"/><path d="M422-354c0 120-19 253 8 356h-59l-21-70h-5C315-22 265 8 189 8 98 8 39-43 39-134c0-147 152-157 302-151 10-93 1-159-99-153-57 4-110 14-148 35l-25-60c48-30 118-45 194-45 108-1 159 51 159 154zM122-142c-2 47 40 81 89 80 67-1 109-32 130-79v-83c-95-3-214-10-219 82" id="F"/><path d="M94-500h80V0H94v-500zm38-99c-31 0-55-23-55-53s24-56 55-56 58 26 58 56-28 53-58 53" id="G"/><path d="M313-512c130 0 165 79 165 210V0h-80v-285c-2-94-16-155-105-157-72-1-118 46-136 100V0H77v-500h56l15 61h4c32-42 86-73 161-73" id="H"/><path d="M63-93c59 36 240 71 234-43-5-91-121-82-179-124-34-24-62-54-62-113 0-97 59-138 155-139 66-1 112 13 154 32l-19 66c-52-26-221-63-210 39 9 83 124 74 178 118 33 27 64 57 63 118-3 103-68 149-174 151C134 13 81-3 39-25" id="I"/><path d="M200 12C109 10 89-39 89-138v-292H11v-70h78v-99l80-23v122h136v70H169v277c1 59 6 93 57 95 38 1 55-9 84-20l18 61c-35 17-77 30-128 29" id="J"/><path d="M268 12C112 12 51-93 49-250c-1-158 69-262 219-262 156 0 217 105 219 262 1 158-69 262-219 262zm136-262c0-105-32-190-136-192-91-2-136 63-136 192 0 105 33 189 136 192 91 2 136-63 136-192" id="K"/><path d="M568-442c-74 2-103 45-118 108V0h-80v-283c0-87-6-159-94-159-65 0-104 47-119 98V0H77v-500h56l15 61h4c37-41 77-74 155-73 72 1 105 26 126 83 28-48 82-81 155-83 130-3 155 82 155 212V0h-80v-301c1-83-12-143-95-141" id="L"/><path d="M290-509c71-1 121 13 170 30V23c0 132-72 189-204 189-71 0-115-8-159-27l21-68c37 13 69 25 124 25 122 0 148-66 139-191h-4c-28 39-65 61-132 60C95 9 50-86 49-248c-1-166 78-261 241-261zM132-249c2 104 25 190 127 190 75 0 106-39 121-105v-256c-27-13-61-19-102-19-103 0-147 74-146 190" id="M"/><g id="a"><use transform="matrix(0.02666666666666667,0,0,0.02666666666666667,0,0)" xlink:href="#D"/><use transform="matrix(0.02666666666666667,0,0,0.02666666666666667,15.573333333333334,0)" xlink:href="#E"/><use transform="matrix(0.02666666666666667,0,0,0.02666666666666667,24.64,0)" xlink:href="#F"/><use transform="matrix(0.02666666666666667,0,0,0.02666666666666667,37.86666666666667,0)" xlink:href="#G"/><use transform="matrix(0.02666666666666667,0,0,0.02666666666666667,45.013333333333335,0)" xlink:href="#H"/><use transform="matrix(0.02666666666666667,0,0,0.02666666666666667,59.6,0)" xlink:href="#I"/><use transform="matrix(0.02666666666666667,0,0,0.02666666666666667,70.82666666666667,0)" xlink:href="#J"/><use transform="matrix(0.02666666666666667,0,0,0.02666666666666667,79.57333333333334,0)" xlink:href="#K"/><use transform="matrix(0.02666666666666667,0,0,0.02666666666666667,93.86666666666667,0)" xlink:href="#E"/><use transform="matrix(0.02666666666666667,0,0,0.02666666666666667,102.93333333333334,0)" xlink:href="#L"/><use transform="matrix(0.02666666666666667,0,0,0.02666666666666667,124.58666666666667,0)" xlink:href="#G"/><use transform="matrix(0.02666666666666667,0,0,0.02666666666666667,131.73333333333335,0)" xlink:href="#H"/><use transform="matrix(0.02666666666666667,0,0,0.02666666666666667,146.32000000000002,0)" xlink:href="#M"/></g><path d="M522-493c0 190-158 248-354 227V0H85v-693c48-12 110-15 169-15 155 0 268 57 268 215zm-88 0c0-134-136-157-266-137v290c139 17 266-9 266-153" id="N"/><path d="M247 9C183 10 114-8 77-29v-671h80v249h4c28-36 76-61 136-61 144 0 194 97 194 254C491-91 407 8 247 9zm161-268c-2-100-27-183-125-183-74 0-109 46-126 107v252c24 14 63 22 102 22 105 0 151-78 149-198" id="O"/><path d="M189 12C123 10 86-25 86-100v-600h80v577c-10 72 59 74 108 54l9 63c-18 10-66 18-94 18" id="P"/><path d="M293-58c43 0 98-19 119-40l30 58C404-9 338 12 270 12 112 10 51-92 49-250c-1-159 70-258 220-262 155-4 211 110 184 270H132c0 116 45 184 161 184zm88-247c1-92-30-137-111-137-89 0-129 46-137 137h248" id="Q"/><g id="b"><use transform="matrix(0.018,0,0,0.018,0,0)" xlink:href="#N"/><use transform="matrix(0.018,0,0,0.018,9.431999999999999,0)" xlink:href="#E"/><use transform="matrix(0.018,0,0,0.018,15.552,0)" xlink:href="#K"/><use transform="matrix(0.018,0,0,0.018,25.199999999999996,0)" xlink:href="#O"/><use transform="matrix(0.018,0,0,0.018,34.919999999999995,0)" xlink:href="#P"/><use transform="matrix(0.018,0,0,0.018,40.175999999999995,0)" xlink:href="#Q"/><use transform="matrix(0.018,0,0,0.018,49.31999999999999,0)" xlink:href="#L"/></g><path d="M101-500c50 129 110 248 149 388 32-143 91-259 137-388h86L260 11h-34L9-500h92" id="R"/><g id="c"><use transform="matrix(0.018,0,0,0.018,0,0)" xlink:href="#I"/><use transform="matrix(0.018,0,0,0.018,7.577999999999999,0)" xlink:href="#K"/><use transform="matrix(0.018,0,0,0.018,17.226,0)" xlink:href="#P"/><use transform="matrix(0.018,0,0,0.018,22.482,0)" xlink:href="#R"/><use transform="matrix(0.018,0,0,0.018,31.158,0)" xlink:href="#G"/><use transform="matrix(0.018,0,0,0.018,35.982,0)" xlink:href="#H"/><use transform="matrix(0.018,0,0,0.018,45.828,0)" xlink:href="#M"/></g><path d="M104-700h83V0h-83v-700" id="S"/><path d="M262 12c-51 0-69-5-105-20v208H77v-700h55l15 60h4c28-43 75-72 143-72 149 0 198 89 198 252 0 161-73 272-230 272zm147-273c-1-103-28-181-130-181-75 0-107 41-122 107v248c27 20 53 30 102 29 104-2 152-86 150-203" id="T"/><g id="d"><use transform="matrix(0.018,0,0,0.018,0,0)" xlink:href="#S"/><use transform="matrix(0.018,0,0,0.018,5.2379999999999995,0)" xlink:href="#L"/><use transform="matrix(0.018,0,0,0.018,19.854,0)" xlink:href="#T"/><use transform="matrix(0.018,0,0,0.018,29.592,0)" xlink:href="#E"/><use transform="matrix(0.018,0,0,0.018,35.711999999999996,0)" xlink:href="#K"/><use transform="matrix(0.018,0,0,0.018,45.14399999999999,0)" xlink:href="#R"/><use transform="matrix(0.018,0,0,0.018,53.62199999999999,0)" xlink:href="#Q"/><use transform="matrix(0.018,0,0,0.018,62.765999999999984,0)" xlink:href="#I"/></g><path d="M537-626H319V0h-83v-626H18v-74h519v74" id="U"/><g id="e"><use transform="matrix(0.018,0,0,0.018,0,0)" xlink:href="#U"/><use transform="matrix(0.018,0,0,0.018,7.685999999999998,0)" xlink:href="#Q"/><use transform="matrix(0.018,0,0,0.018,16.83,0)" xlink:href="#F"/><use transform="matrix(0.018,0,0,0.018,25.757999999999996,0)" xlink:href="#L"/></g><path d="M232 12C103 12 68-68 69-198v-302h80v285c0 87 12 158 98 157 78-1 111-51 135-108v-334h80c4 166-10 350 11 500h-55l-20-79h-5c-31 50-80 91-161 91" id="V"/><path d="M276-509c50 0 69 4 105 17v-208h80v528c1 67-1 118 10 174h-54l-20-71h-4c-25 44-78 82-147 81C97 8 50-86 49-248c-1-159 77-260 227-261zM132-248c1 104 26 190 127 190 75 0 108-41 122-107v-248c-27-20-53-26-102-26-105 0-148 72-147 191" id="W"/><g id="f"><use transform="matrix(0.018,0,0,0.018,0,0)" xlink:href="#O"/><use transform="matrix(0.018,0,0,0.018,9.719999999999999,0)" xlink:href="#V"/><use transform="matrix(0.018,0,0,0.018,19.421999999999997,0)" xlink:href="#G"/><use transform="matrix(0.018,0,0,0.018,24.245999999999995,0)" xlink:href="#P"/><use transform="matrix(0.018,0,0,0.018,29.501999999999995,0)" xlink:href="#W"/><use transform="matrix(0.018,0,0,0.018,39.185999999999986,0)" xlink:href="#G"/><use transform="matrix(0.018,0,0,0.018,44.00999999999999,0)" xlink:href="#H"/><use transform="matrix(0.018,0,0,0.018,53.855999999999995,0)" xlink:href="#M"/></g><path d="M9 142c81 3 84-65 84-145v-497h80V27c1 123-40 197-164 183v-68zm122-741c-31 0-55-23-55-53s24-56 55-56 58 26 58 56-28 53-58 53" id="X"/><path d="M281-58c46 1 86-17 111-36l26 61c-37 28-94 45-157 45C104 12 53-93 49-250c-5-188 108-294 299-254 22 5 42 12 60 21l-23 69c-29-16-66-28-111-28-95 0-142 64-142 192 0 110 39 189 149 192" id="Y"/><g id="g"><use transform="matrix(0.018,0,0,0.018,0,0)" xlink:href="#N"/><use transform="matrix(0.018,0,0,0.018,9.431999999999999,0)" xlink:href="#E"/><use transform="matrix(0.018,0,0,0.018,15.552,0)" xlink:href="#K"/><use transform="matrix(0.018,0,0,0.018,25.199999999999996,0)" xlink:href="#X"/><use transform="matrix(0.018,0,0,0.018,30.005999999999997,0)" xlink:href="#Q"/><use transform="matrix(0.018,0,0,0.018,38.952,0)" xlink:href="#Y"/><use transform="matrix(0.018,0,0,0.018,47.06999999999999,0)" xlink:href="#J"/></g><g id="h"><use transform="matrix(0.018,0,0,0.018,0,0)" xlink:href="#L"/><use transform="matrix(0.018,0,0,0.018,14.616,0)" xlink:href="#F"/><use transform="matrix(0.018,0,0,0.018,23.543999999999997,0)" xlink:href="#H"/><use transform="matrix(0.018,0,0,0.018,33.39,0)" xlink:href="#F"/><use transform="matrix(0.018,0,0,0.018,42.318,0)" xlink:href="#M"/><use transform="matrix(0.018,0,0,0.018,51.983999999999995,0)" xlink:href="#Q"/><use transform="matrix(0.018,0,0,0.018,61.12799999999999,0)" xlink:href="#L"/><use transform="matrix(0.018,0,0,0.018,75.744,0)" xlink:href="#Q"/><use transform="matrix(0.018,0,0,0.018,84.888,0)" xlink:href="#H"/><use transform="matrix(0.018,0,0,0.018,94.73400000000001,0)" xlink:href="#J"/></g><g id="i"><use transform="matrix(0.018,0,0,0.018,0,0)" xlink:href="#S"/><use transform="matrix(0.018,0,0,0.018,5.2379999999999995,0)" xlink:href="#I"/><use transform="matrix(0.018,0,0,0.018,12.815999999999999,0)" xlink:href="#I"/><use transform="matrix(0.018,0,0,0.018,20.394,0)" xlink:href="#V"/><use transform="matrix(0.018,0,0,0.018,30.095999999999997,0)" xlink:href="#Q"/><use transform="matrix(0.018,0,0,0.018,39.239999999999995,0)" xlink:href="#I"/></g><path d="M262 9C206 9 136 6 85 1v-701c55-8 125-8 187-8 221 0 326 133 326 353C598-133 489 9 262 9zm248-364c0-173-76-287-264-279-26 1-55 2-78 5v560c27 3 67 4 96 4 176 0 246-117 246-290" id="Z"/><g id="j"><use transform="matrix(0.018,0,0,0.018,0,0)" xlink:href="#Z"/><use transform="matrix(0.018,0,0,0.018,11.771999999999998,0)" xlink:href="#Q"/><use transform="matrix(0.018,0,0,0.018,20.718,0)" xlink:href="#Y"/><use transform="matrix(0.018,0,0,0.018,28.835999999999995,0)" xlink:href="#G"/><use transform="matrix(0.018,0,0,0.018,33.66,0)" xlink:href="#I"/><use transform="matrix(0.018,0,0,0.018,41.238,0)" xlink:href="#G"/><use transform="matrix(0.018,0,0,0.018,46.062,0)" xlink:href="#K"/><use transform="matrix(0.018,0,0,0.018,55.709999999999994,0)" xlink:href="#H"/></g><path d="M203-225h-46V0H77v-700h80v426l41-14 155-212h93L293-299l-41 33 50 40L469 0h-99" id="aa"/><g id="k"><use transform="matrix(0.018,0,0,0.018,0,0)" xlink:href="#L"/><use transform="matrix(0.018,0,0,0.018,14.616,0)" xlink:href="#F"/><use transform="matrix(0.018,0,0,0.018,23.543999999999997,0)" xlink:href="#aa"/><use transform="matrix(0.018,0,0,0.018,32.166,0)" xlink:href="#G"/><use transform="matrix(0.018,0,0,0.018,36.989999999999995,0)" xlink:href="#H"/><use transform="matrix(0.018,0,0,0.018,46.836,0)" xlink:href="#M"/></g><path d="M85-700h381v74H168v229h273v74H168v249h303V0H85v-700" id="ab"/><path d="M251-636c-75-3-71 63-71 136h133v70H180V0h-80v-430H22v-70h78c-5-124 22-209 143-206 47 1 73 5 108 19l-18 67c-26-12-50-15-82-16" id="ac"/><path d="M104-500c49 140 107 271 148 420h5c31-148 79-280 119-420h81C396-319 339-134 276 44c-20 55-46 106-82 140-28 26-82 25-117 11l14-69c34 12 54 2 79-24 17-20 32-54 43-102L12-500h92" id="ad"/><g id="l"><use transform="matrix(0.018,0,0,0.018,0,0)" xlink:href="#ab"/><use transform="matrix(0.018,0,0,0.018,9.648,0)" xlink:href="#ac"/><use transform="matrix(0.018,0,0,0.018,15.39,0)" xlink:href="#ac"/><use transform="matrix(0.018,0,0,0.018,21.132,0)" xlink:href="#G"/><use transform="matrix(0.018,0,0,0.018,25.956000000000003,0)" xlink:href="#Y"/><use transform="matrix(0.018,0,0,0.018,34.074,0)" xlink:href="#G"/><use transform="matrix(0.018,0,0,0.018,38.897999999999996,0)" xlink:href="#Q"/><use transform="matrix(0.018,0,0,0.018,48.041999999999994,0)" xlink:href="#H"/><use transform="matrix(0.018,0,0,0.018,57.887999999999984,0)" xlink:href="#Y"/><use transform="matrix(0.018,0,0,0.018,65.78999999999999,0)" xlink:href="#ad"/></g><g id="m"><use transform="matrix(0.018,0,0,0.018,0,0)" xlink:href="#S"/><use transform="matrix(0.018,0,0,0.018,5.2379999999999995,0)" xlink:href="#H"/><use transform="matrix(0.018,0,0,0.018,15.084,0)" xlink:href="#H"/><use transform="matrix(0.018,0,0,0.018,24.93,0)" xlink:href="#K"/><use transform="matrix(0.018,0,0,0.018,34.361999999999995,0)" xlink:href="#R"/><use transform="matrix(0.018,0,0,0.018,43.038,0)" xlink:href="#F"/><use transform="matrix(0.018,0,0,0.018,51.965999999999994,0)" xlink:href="#J"/><use transform="matrix(0.018,0,0,0.018,58.06799999999999,0)" xlink:href="#G"/><use transform="matrix(0.018,0,0,0.018,62.89199999999999,0)" xlink:href="#K"/><use transform="matrix(0.018,0,0,0.018,72.53999999999999,0)" xlink:href="#H"/></g><path d="M212 49c178-32 301 98 492 50v72c-165 44-297-46-446-55-16 0-31 2-46 6V49zm129-37C133 12 59-139 56-350c-2-213 86-362 285-362 209 0 284 150 287 362 2 214-87 362-287 362zm0-650c-145 0-200 119-197 288 3 154 48 288 197 288 146 0 202-119 199-288-3-155-49-288-199-288" id="ae"/><g id="n"><use transform="matrix(0.018,0,0,0.018,0,0)" xlink:href="#ae"/><use transform="matrix(0.018,0,0,0.018,12.312,0)" xlink:href="#V"/><use transform="matrix(0.018,0,0,0.018,22.014,0)" xlink:href="#F"/><use transform="matrix(0.018,0,0,0.018,30.942,0)" xlink:href="#P"/><use transform="matrix(0.018,0,0,0.018,36.198,0)" xlink:href="#G"/><use transform="matrix(0.018,0,0,0.018,41.022,0)" xlink:href="#J"/><use transform="matrix(0.018,0,0,0.018,47.123999999999995,0)" xlink:href="#ad"/></g><g id="o"><use transform="matrix(0.018,0,0,0.018,0,0)" xlink:href="#N"/><use transform="matrix(0.018,0,0,0.018,9.431999999999999,0)" xlink:href="#E"/><use transform="matrix(0.018,0,0,0.018,15.552,0)" xlink:href="#K"/><use transform="matrix(0.018,0,0,0.018,24.983999999999998,0)" xlink:href="#ac"/><use transform="matrix(0.018,0,0,0.018,30.726,0)" xlink:href="#G"/><use transform="matrix(0.018,0,0,0.018,35.55,0)" xlink:href="#J"/><use transform="matrix(0.018,0,0,0.018,41.651999999999994,0)" xlink:href="#F"/><use transform="matrix(0.018,0,0,0.018,50.57999999999999,0)" xlink:href="#O"/><use transform="matrix(0.018,0,0,0.018,60.29999999999999,0)" xlink:href="#G"/><use transform="matrix(0.018,0,0,0.018,65.124,0)" xlink:href="#P"/><use transform="matrix(0.018,0,0,0.018,70.38,0)" xlink:href="#G"/><use transform="matrix(0.018,0,0,0.018,75.204,0)" xlink:href="#J"/><use transform="matrix(0.018,0,0,0.018,81.306,0)" xlink:href="#ad"/></g><g id="p"><use transform="matrix(0.018,0,0,0.018,0,0)" xlink:href="#S"/><use transform="matrix(0.018,0,0,0.018,5.2379999999999995,0)" xlink:href="#H"/><use transform="matrix(0.018,0,0,0.018,15.084,0)" xlink:href="#G"/><use transform="matrix(0.018,0,0,0.018,19.908,0)" xlink:href="#J"/><use transform="matrix(0.018,0,0,0.018,26.01,0)" xlink:href="#G"/><use transform="matrix(0.018,0,0,0.018,30.834000000000003,0)" xlink:href="#F"/><use transform="matrix(0.018,0,0,0.018,39.762,0)" xlink:href="#J"/><use transform="matrix(0.018,0,0,0.018,45.864,0)" xlink:href="#G"/><use transform="matrix(0.018,0,0,0.018,50.687999999999995,0)" xlink:href="#R"/><use transform="matrix(0.018,0,0,0.018,59.166,0)" xlink:href="#Q"/></g><path d="M74-100c89 50 337 72 327-78-8-132-168-134-251-198-46-36-87-77-87-158 0-190 253-210 408-146l-25 73c-38-17-105-31-168-31-104 0-173 93-107 164 94 102 313 99 313 289C484-48 386 9 246 12 162 13 95-2 46-25" id="af"/><path d="M314-512c131 0 164 78 164 210V0h-80v-285c1-91-15-157-107-157-66 0-134 50-134 109V0H77v-700h80v256h4c35-40 79-68 153-68" id="ag"/><g id="q"><use transform="matrix(0.018,0,0,0.018,0,0)" xlink:href="#af"/><use transform="matrix(0.018,0,0,0.018,9.558,0)" xlink:href="#ag"/><use transform="matrix(0.018,0,0,0.018,19.404,0)" xlink:href="#F"/><use transform="matrix(0.018,0,0,0.018,28.332,0)" xlink:href="#E"/><use transform="matrix(0.018,0,0,0.018,34.452,0)" xlink:href="#Q"/></g><g id="r"><use transform="matrix(0.018,0,0,0.018,0,0)" xlink:href="#W"/><use transform="matrix(0.018,0,0,0.018,9.684,0)" xlink:href="#G"/><use transform="matrix(0.018,0,0,0.018,14.508,0)" xlink:href="#I"/><use transform="matrix(0.018,0,0,0.018,22.086,0)" xlink:href="#Y"/><use transform="matrix(0.018,0,0,0.018,30.203999999999997,0)" xlink:href="#V"/><use transform="matrix(0.018,0,0,0.018,39.906,0)" xlink:href="#I"/><use transform="matrix(0.018,0,0,0.018,47.483999999999995,0)" xlink:href="#I"/><use transform="matrix(0.018,0,0,0.018,55.062,0)" xlink:href="#G"/><use transform="matrix(0.018,0,0,0.018,59.885999999999996,0)" xlink:href="#K"/><use transform="matrix(0.018,0,0,0.018,69.53399999999999,0)" xlink:href="#H"/><use transform="matrix(0.018,0,0,0.018,79.38,0)" xlink:href="#I"/></g><g id="s"><use transform="matrix(0.018,0,0,0.018,0,0)" xlink:href="#S"/><use transform="matrix(0.018,0,0,0.018,5.2379999999999995,0)" xlink:href="#W"/><use transform="matrix(0.018,0,0,0.018,14.921999999999999,0)" xlink:href="#Q"/><use transform="matrix(0.018,0,0,0.018,24.066,0)" xlink:href="#F"/><use transform="matrix(0.018,0,0,0.018,32.994,0)" xlink:href="#I"/></g><g id="t"><use transform="matrix(0.018,0,0,0.018,0,0)" xlink:href="#F"/><use transform="matrix(0.018,0,0,0.018,8.927999999999999,0)" xlink:href="#H"/><use transform="matrix(0.018,0,0,0.018,18.774,0)" xlink:href="#W"/></g><g id="u"><use transform="matrix(0.018,0,0,0.018,0,0)" xlink:href="#T"/><use transform="matrix(0.018,0,0,0.018,9.738,0)" xlink:href="#K"/><use transform="matrix(0.018,0,0,0.018,19.386,0)" xlink:href="#I"/><use transform="matrix(0.018,0,0,0.018,26.964,0)" xlink:href="#I"/><use transform="matrix(0.018,0,0,0.018,34.542,0)" xlink:href="#G"/><use transform="matrix(0.018,0,0,0.018,39.366,0)" xlink:href="#O"/><use transform="matrix(0.018,0,0,0.018,49.086,0)" xlink:href="#G"/><use transform="matrix(0.018,0,0,0.018,53.91,0)" xlink:href="#P"/><use transform="matrix(0.018,0,0,0.018,59.166,0)" xlink:href="#G"/><use transform="matrix(0.018,0,0,0.018,63.989999999999995,0)" xlink:href="#J"/><use transform="matrix(0.018,0,0,0.018,70.092,0)" xlink:href="#G"/><use transform="matrix(0.018,0,0,0.018,74.916,0)" xlink:href="#Q"/><use transform="matrix(0.018,0,0,0.018,84.06000000000002,0)" xlink:href="#I"/></g><path d="M418-194H160L90 0H8l265-711h38L577 0h-87zm-231-72h206c-37-104-80-202-104-319-21 119-66 215-102 319" id="ah"/><g id="v"><use transform="matrix(0.018,0,0,0.018,0,0)" xlink:href="#ah"/><use transform="matrix(0.018,0,0,0.018,10.53,0)" xlink:href="#P"/><use transform="matrix(0.018,0,0,0.018,15.786,0)" xlink:href="#J"/><use transform="matrix(0.018,0,0,0.018,21.689999999999998,0)" xlink:href="#Q"/><use transform="matrix(0.018,0,0,0.018,30.833999999999996,0)" xlink:href="#E"/><use transform="matrix(0.018,0,0,0.018,36.954,0)" xlink:href="#H"/><use transform="matrix(0.018,0,0,0.018,46.8,0)" xlink:href="#F"/><use transform="matrix(0.018,0,0,0.018,55.727999999999994,0)" xlink:href="#J"/><use transform="matrix(0.018,0,0,0.018,61.829999999999984,0)" xlink:href="#G"/><use transform="matrix(0.018,0,0,0.018,66.654,0)" xlink:href="#R"/><use transform="matrix(0.018,0,0,0.018,75.132,0)" xlink:href="#Q"/><use transform="matrix(0.018,0,0,0.018,84.27600000000001,0)" xlink:href="#I"/></g><g id="w"><use transform="matrix(0.018,0,0,0.018,0,0)" xlink:href="#ah"/><use transform="matrix(0.018,0,0,0.018,10.53,0)" xlink:href="#P"/><use transform="matrix(0.018,0,0,0.018,15.786,0)" xlink:href="#J"/><use transform="matrix(0.018,0,0,0.018,21.689999999999998,0)" xlink:href="#Q"/><use transform="matrix(0.018,0,0,0.018,30.833999999999996,0)" xlink:href="#E"/><use transform="matrix(0.018,0,0,0.018,36.954,0)" xlink:href="#H"/><use transform="matrix(0.018,0,0,0.018,46.8,0)" xlink:href="#F"/><use transform="matrix(0.018,0,0,0.018,55.727999999999994,0)" xlink:href="#J"/><use transform="matrix(0.018,0,0,0.018,61.829999999999984,0)" xlink:href="#G"/><use transform="matrix(0.018,0,0,0.018,66.654,0)" xlink:href="#R"/><use transform="matrix(0.018,0,0,0.018,75.132,0)" xlink:href="#Q"/></g><g id="x"><use transform="matrix(0.018,0,0,0.018,0,0)" xlink:href="#I"/><use transform="matrix(0.018,0,0,0.018,7.577999999999999,0)" xlink:href="#K"/><use transform="matrix(0.018,0,0,0.018,17.226,0)" xlink:href="#P"/><use transform="matrix(0.018,0,0,0.018,22.482,0)" xlink:href="#V"/><use transform="matrix(0.018,0,0,0.018,32.184,0)" xlink:href="#J"/><use transform="matrix(0.018,0,0,0.018,38.285999999999994,0)" xlink:href="#G"/><use transform="matrix(0.018,0,0,0.018,43.109999999999985,0)" xlink:href="#K"/><use transform="matrix(0.018,0,0,0.018,52.757999999999996,0)" xlink:href="#H"/><use transform="matrix(0.018,0,0,0.018,62.60399999999999,0)" xlink:href="#I"/></g><g id="y"><use transform="matrix(0.018,0,0,0.018,0,0)" xlink:href="#S"/><use transform="matrix(0.018,0,0,0.018,5.2379999999999995,0)" xlink:href="#L"/><use transform="matrix(0.018,0,0,0.018,19.854,0)" xlink:href="#T"/><use transform="matrix(0.018,0,0,0.018,29.592,0)" xlink:href="#F"/><use transform="matrix(0.018,0,0,0.018,38.519999999999996,0)" xlink:href="#Y"/><use transform="matrix(0.018,0,0,0.018,46.63799999999999,0)" xlink:href="#J"/></g><g id="z"><use transform="matrix(0.018,0,0,0.018,0,0)" xlink:href="#F"/><use transform="matrix(0.018,0,0,0.018,8.927999999999999,0)" xlink:href="#H"/><use transform="matrix(0.018,0,0,0.018,18.774,0)" xlink:href="#F"/><use transform="matrix(0.018,0,0,0.018,27.701999999999998,0)" xlink:href="#P"/><use transform="matrix(0.018,0,0,0.018,32.958,0)" xlink:href="#ad"/><use transform="matrix(0.018,0,0,0.018,41.346,0)" xlink:href="#I"/><use transform="matrix(0.018,0,0,0.018,48.924,0)" xlink:href="#G"/><use transform="matrix(0.018,0,0,0.018,53.74799999999999,0)" xlink:href="#I"/></g><path d="M493-515c2 111-71 179-159 201l48 37L556 0h-97L266-302l-98-15V0H85v-693c47-9 123-15 178-15 137 2 227 56 230 193zm-88 3c-1-85-69-132-167-124-24 2-50 2-70 6v258c131 10 239-16 237-140" id="ai"/><g id="A"><use transform="matrix(0.018,0,0,0.018,0,0)" xlink:href="#ai"/><use transform="matrix(0.018,0,0,0.018,9.846,0)" xlink:href="#K"/><use transform="matrix(0.018,0,0,0.018,19.494,0)" xlink:href="#K"/><use transform="matrix(0.018,0,0,0.018,29.142,0)" xlink:href="#J"/></g><g id="B"><use transform="matrix(0.018,0,0,0.018,0,0)" xlink:href="#Y"/><use transform="matrix(0.018,0,0,0.018,8.117999999999999,0)" xlink:href="#F"/><use transform="matrix(0.018,0,0,0.018,17.046,0)" xlink:href="#V"/><use transform="matrix(0.018,0,0,0.018,26.747999999999998,0)" xlink:href="#I"/><use transform="matrix(0.018,0,0,0.018,34.32599999999999,0)" xlink:href="#Q"/><use transform="matrix(0.018,0,0,0.018,43.46999999999999,0)" xlink:href="#I"/></g><path d="M623 0c4-191-10-400 10-575h-5l-38 96-182 316h-25L190-480l-36-95h-5l14 104V0H85v-700h62l219 358c12 26 21 55 35 78l31-80 209-356h65V0h-83" id="aj"/><g id="C"><use transform="matrix(0.018,0,0,0.018,0,0)" xlink:href="#aj"/><use transform="matrix(0.018,0,0,0.018,14.238,0)" xlink:href="#K"/><use transform="matrix(0.018,0,0,0.018,23.886,0)" xlink:href="#E"/><use transform="matrix(0.018,0,0,0.018,30.006,0)" xlink:href="#F"/><use transform="matrix(0.018,0,0,0.018,38.934,0)" xlink:href="#P"/><use transform="matrix(0.018,0,0,0.018,44.19,0)" xlink:href="#Q"/></g></defs></g></svg>